<svg xmlns="http://www.w3.org/2000/svg" viewBox="0 0 340 52">
  <g transform="translate(2.00,2.00) scale(1.5)" fill="#eb8102">
    <path d="M 16.21875 0.0625 L 15.375 0.09375 L 15.40625 1.09375 L 16.21875 1.0625 L 16.25 1.0625 L 16.375 1.0625 L 16.40625 0.0625 L 16.25 0.0625 L 16.21875 0.0625 z M 19.5 0.46875 L 19.25 1.40625 L 20.125 1.65625 L 20.15625 1.65625 L 20.1875 1.65625 L 20.28125 1.34375 L 20.3125 1.1875 L 20.5 0.71875 L 20.46875 0.71875 L 20.46875 0.6875 L 20.4375 0.6875 L 19.5 0.46875 z M 12.3125 0.625 L 12.03125 0.6875 L 12 0.6875 L 11.96875 0.71875 L 11.3125 0.9375 L 11.65625 1.90625 L 12.28125 1.65625 L 12.3125 1.65625 L 12.5625 1.59375 L 12.3125 0.625 z M 23.3125 1.96875 L 22.8125 2.84375 L 23.59375 3.3125 L 23.625 3.3125 L 23.75 3.15625 L 23.90625 2.90625 L 24.21875 2.53125 L 24.1875 2.5 L 24.15625 2.46875 L 23.3125 1.96875 z M 8.5625 2.34375 L 8.3125 2.46875 L 8.28125 2.5 L 7.6875 2.9375 L 8.3125 3.71875 L 8.8125 3.34375 L 8.875 3.3125 L 9.0625 3.1875 L 8.5625 2.34375 z M 17.625 3.9375 L 17.5 4.90625 L 18 5 L 18.0625 5 L 18.40625 5.09375 L 18.65625 4.125 L 18.25 4.03125 L 18.25 4 L 18.21875 4 L 17.625 3.9375 z M 14.5 3.96875 L 14.25 4 L 14.21875 4 L 14.1875 4.03125 L 13.46875 4.21875 L 13.71875 5.1875 L 14.40625 5 L 14.4375 5 L 14.65625 4.96875 L 14.5 3.96875 z M 26.5625 4.53125 L 25.8125 5.21875 L 26.40625 5.84375 L 26.40625 5.875 L 26.4375 5.90625 L 26.4375 5.9375 L 27.25 5.3125 L 27.21875 5.25 L 27.1875 5.25 L 27.1875 5.21875 L 26.5625 4.53125 z M 5.4375 5.03125 L 5.28125 5.21875 L 5.28125 5.25 L 5.25 5.25 L 4.8125 5.875 L 5.59375 6.46875 L 6.03125 5.90625 L 6.0625 5.84375 L 6.1875 5.71875 L 5.4375 5.03125 z M 21.5625 5.375 L 21.03125 6.21875 L 21.21875 6.34375 L 21.25 6.34375 L 21.8125 6.75 L 22.40625 5.96875 L 21.8125 5.53125 L 21.8125 5.5 L 21.78125 5.5 L 21.5625 5.375 z M 10.59375 5.5625 L 9.90625 6.0625 L 9.875 6.09375 L 9.78125 6.1875 L 10.4375 6.9375 L 10.5 6.875 L 10.53125 6.84375 L 11.1875 6.34375 L 10.59375 5.5625 z M 16.21875 6.78125 C 12.356874 6.78125 9.21875 9.9758377 9.21875 13.875 C 9.21875 16.275852 10.23039 18.069937 11.1875 19.53125 C 12.14461 20.992563 13 22.137691 13 23.125 L 13 24.28125 A 0.50005 0.50005 0 0 0 13.5 24.78125 L 18.90625 24.78125 A 0.50005 0.50005 0 0 0 19.40625 24.28125 L 19.40625 23.125 C 19.40625 22.129267 20.282982 20.947927 21.25 19.46875 C 22.217018 17.989573 23.21875 16.213865 23.21875 13.875 C 23.21875 9.975746 20.08155 6.78125 16.21875 6.78125 z M 16.21875 7.78125 C 19.53395 7.78125 22.21875 10.510254 22.21875 13.875 C 22.21875 15.924135 21.346232 17.499677 20.40625 18.9375 C 19.466268 20.375323 18.40625 21.620733 18.40625 23.125 L 18.40625 23.78125 L 14 23.78125 L 14 23.125 C 14 21.631309 12.95864 20.384687 12.03125 18.96875 C 11.10386 17.552813 10.21875 15.998148 10.21875 13.875 C 10.21875 10.510162 12.904626 7.78125 16.21875 7.78125 z M 28.90625 7.9375 L 28.03125 8.375 L 28.375 9.125 L 28.40625 9.15625 L 28.4375 9.21875 L 29.375 8.875 L 29.3125 8.78125 L 29.3125 8.75 L 29.3125 8.71875 L 28.90625 7.9375 z M 24.5625 8.3125 L 23.6875 8.8125 L 24.09375 9.5 L 24.125 9.53125 L 24.1875 9.65625 L 25.09375 9.21875 L 25 9.0625 L 25 9.03125 L 24.96875 9 L 24.5625 8.3125 z M 3.25 8.53125 L 3.15625 8.71875 L 3.125 8.75 L 3.125 8.78125 L 2.875 9.5 L 3.8125 9.84375 L 4.0625 9.15625 L 4.0625 9.125 L 4.15625 8.96875 L 3.25 8.53125 z M 7.75 8.5625 L 7.46875 9 L 7.46875 9.03125 L 7.46875 9.0625 L 7.25 9.5 L 8.15625 9.9375 L 8.34375 9.53125 L 8.34375 9.5 L 8.59375 9.09375 L 7.75 8.5625 z M 16.0625 9.84375 L 15.46875 9.90625 L 15.375 9.90625 L 15.09375 10 L 15.375 10.96875 L 15.5625 10.90625 L 15.59375 10.90625 L 16.1875 10.84375 L 16.0625 9.84375 z M 17.1875 9.9375 L 16.875 10.90625 L 17.34375 11.03125 L 17.375 11.03125 L 17.4375 11.0625 L 17.65625 11.1875 L 18.125 10.3125 L 17.84375 10.15625 L 17.75 10.125 L 17.1875 9.9375 z M 14.15625 10.40625 L 14.03125 10.5 L 13.9375 10.53125 L 13.4375 10.96875 L 13.375 11.03125 L 13.3125 11.125 L 14.0625 11.75 L 14.15625 11.6875 L 14.5 11.375 L 14.53125 11.34375 L 14.59375 11.3125 L 14.625 11.3125 L 14.15625 10.40625 z M 18.9375 10.90625 L 18.3125 11.6875 L 18.375 11.75 L 18.6875 12.125 L 18.75 12.25 L 19.625 11.78125 L 19.5625 11.65625 L 19.53125 11.5625 L 19.09375 11.03125 L 19.03125 10.96875 L 18.9375 10.90625 z M 30.21875 11.84375 L 29.21875 12 L 29.375 12.90625 L 29.375 12.9375 L 29.375 12.96875 L 29.875 12.90625 L 30.375 12.875 L 30.375 12.84375 L 30.34375 12.8125 L 30.21875 11.84375 z M 12.71875 11.9375 L 12.5625 12.25 L 12.53125 12.34375 L 12.34375 12.90625 L 13.3125 13.1875 L 13.4375 12.71875 L 13.4375 12.6875 L 13.46875 12.625 L 13.59375 12.4375 L 12.71875 11.9375 z M 26.0625 12.1875 L 25.0625 12.34375 L 25.15625 12.84375 L 25.15625 12.875 L 25.1875 13.28125 L 26.15625 13.21875 L 26.15625 12.78125 L 26.15625 12.75 L 26.0625 12.1875 z M 6.34375 12.5 L 6.3125 12.75 L 6.3125 12.78125 L 6.28125 13.5625 L 7.28125 13.59375 L 7.3125 12.875 L 7.3125 12.84375 L 7.34375 12.65625 L 6.34375 12.5 z M 2.15625 12.53125 L 2.09375 12.8125 L 2.09375 12.84375 L 2.09375 12.875 L 2.0625 13.5625 L 3.0625 13.625 L 3.09375 12.96875 L 3.09375 12.90625 L 3.125 12.65625 L 2.15625 12.53125 z M 20.03125 12.6875 L 19.09375 13 L 19.15625 13.1875 L 19.21875 13.78125 L 20.21875 13.6875 L 20.15625 13.09375 L 20.125 13 L 20.03125 12.6875 z M 13.25 13.96875 L 12.25 14.0625 L 12.3125 14.625 L 12.3125 14.71875 L 12.4375 15.0625 L 13.375 14.78125 L 13.3125 14.53125 L 13.25 13.96875 z M 19.15625 14.5 L 19 15 L 18.96875 15.09375 L 18.875 15.28125 L 19.75 15.75 L 19.90625 15.46875 L 19.9375 15.375 L 20.125 14.8125 L 19.15625 14.5 z M 13.71875 15.53125 L 12.84375 16 L 12.875 16.09375 L 12.9375 16.15625 L 13.375 16.6875 L 13.4375 16.75 L 13.53125 16.84375 L 14.1875 16.0625 L 14.15625 16.0625 L 14.125 16.03125 L 13.78125 15.59375 L 13.71875 15.53125 z M 29.34375 15.8125 L 29.1875 16.8125 L 30.15625 16.96875 L 30.34375 16 L 29.34375 15.8125 z M 18.40625 15.9375 L 18.375 16 L 18.34375 16.03125 L 18.3125 16.0625 L 17.9375 16.375 L 17.90625 16.375 L 17.875 16.40625 L 17.84375 16.40625 L 18.34375 17.28125 L 18.4375 17.25 L 18.5 17.1875 L 19.03125 16.75 L 19.09375 16.6875 L 19.1875 16.5625 L 18.40625 15.9375 z M 24.875 16.09375 L 24.71875 16.6875 L 24.71875 16.71875 L 24.59375 17 L 25.53125 17.375 L 25.65625 17.0625 L 25.65625 17.03125 L 25.65625 17 L 25.84375 16.34375 L 24.875 16.09375 z M 7.65625 16.40625 L 6.6875 16.65625 L 6.75 16.875 L 6.75 16.90625 L 7.0625 17.65625 L 7.96875 17.28125 L 7.71875 16.59375 L 7.6875 16.59375 L 7.6875 16.5625 L 7.65625 16.40625 z M 3.21875 16.5 L 2.25 16.65625 L 2.34375 17.28125 L 2.34375 17.3125 L 2.4375 17.6875 L 3.40625 17.4375 L 3.3125 17.125 L 3.3125 17.0625 L 3.21875 16.5 z M 14.84375 16.53125 L 14.375 17.4375 L 14.625 17.5625 L 14.71875 17.59375 L 15.3125 17.78125 L 15.59375 16.84375 L 15.09375 16.6875 L 15.0625 16.65625 L 15.03125 16.65625 L 14.84375 16.53125 z M 17.125 16.75 L 16.78125 16.84375 L 16.3125 16.90625 L 16.40625 17.90625 L 17 17.84375 L 17.09375 17.8125 L 17.40625 17.71875 L 17.125 16.75 z M 23.1875 19.4375 L 22.78125 19.90625 L 22.75 19.96875 L 22.5625 20.125 L 23.25 20.84375 L 23.46875 20.65625 L 23.46875 20.625 L 23.5 20.59375 L 23.9375 20.09375 L 23.1875 19.4375 z M 28.34375 19.5625 L 28.1875 19.90625 L 28.1875 19.9375 L 27.90625 20.40625 L 28.8125 20.90625 L 29.09375 20.375 L 29.09375 20.34375 L 29.09375 20.3125 L 29.25 19.9375 L 28.34375 19.5625 z M 9.46875 19.6875 L 9.34375 19.8125 L 8.71875 20.3125 L 8.71875 20.34375 L 8.75 20.375 L 8.78125 20.40625 L 9.4375 21.0625 L 10.15625 20.375 L 9.53125 19.71875 L 9.5 19.71875 L 9.5 19.6875 L 9.46875 19.6875 z M 4.40625 20.125 L 3.5 20.59375 L 3.875 21.34375 L 3.90625 21.375 L 3.90625 21.40625 L 4 21.53125 L 4.84375 20.96875 L 4.78125 20.90625 L 4.75 20.84375 L 4.40625 20.125 z M 26.3125 22.8125 L 25.84375 23.375 L 25.8125 23.40625 L 25.6875 23.53125 L 26.375 24.25 L 26.53125 24.09375 L 26.5625 24.0625 L 26.5625 24.03125 L 27.0625 23.46875 L 26.3125 22.8125 z M 6.5625 23.3125 L 5.84375 24 L 6.5625 24.71875 L 7.28125 24 L 6.5625 23.3125 z M 13.59375 25.78125 A 0.50005 0.50005 0 0 0 13.1875 26.28125 L 13.1875 28.28125 A 0.50005 0.50005 0 0 0 13.6875 28.78125 L 14.21875 28.78125 L 14.21875 32.28125 L 15.21875 32.28125 L 15.21875 28.78125 L 17.21875 28.78125 L 17.21875 32.28125 L 18.21875 32.28125 L 18.21875 28.78125 L 18.6875 28.78125 A 0.50005 0.50005 0 0 0 18.78125 28.78125 A 0.50005 0.50005 0 0 0 19.1875 28.28125 L 19.1875 26.28125 A 0.50005 0.50005 0 0 0 18.6875 25.78125 L 13.6875 25.78125 A 0.50005 0.50005 0 0 0 13.59375 25.78125 z M 14.1875 26.78125 L 18.1875 26.78125 L 18.1875 27.78125 L 14.1875 27.78125 L 14.1875 26.78125 z " fill-rule="nonzero" stroke="none"/>
  </g>
  <text x="62" y="24" font-family="Georgia,serif" font-size="22" font-weight="700" letter-spacing="3" fill="#1A1A1A">AVANTGARDE</text>
  <text x="62" y="40" font-family="Georgia,serif" font-size="9.5" font-weight="400" letter-spacing="2.5" fill="#1A1A1A">CONSULTING GROUP</text>
</svg>